<svg id="Layer_1" data-name="Layer 1" xmlns="http://www.w3.org/2000/svg" viewBox="0 0 2826.15 573.25"><defs><style>.cls-1,.cls-2{fill:aqua;}.cls-2{font-size:563.47px;font-family:THEMEZIRANE, THE MEZIRANE;}.cls-3{letter-spacing:0em;}</style></defs><title>KKOJE ARCHIVE</title><path class="cls-1" d="M715.69,1168.7H161a60.12,60.12,0,0,0-60.12,60.12v53.42A60.12,60.12,0,0,0,161,1342.36H715.69a60.12,60.12,0,0,0,60.12-60.12v-53.42A60.12,60.12,0,0,0,715.69,1168.7ZM195.14,1297.91a42.54,42.54,0,1,1,42.55-42.54A42.54,42.54,0,0,1,195.14,1297.91Z" transform="translate(-100.85 -1166.59)"/><path class="cls-1" d="M715.69,1367.44H161a60.12,60.12,0,0,0-60.12,60.12V1481A60.12,60.12,0,0,0,161,1541.1H715.69A60.12,60.12,0,0,0,775.81,1481v-53.42A60.12,60.12,0,0,0,715.69,1367.44ZM195.14,1496.65a42.54,42.54,0,1,1,42.55-42.54A42.54,42.54,0,0,1,195.14,1496.65Z" transform="translate(-100.85 -1166.59)"/><path class="cls-1" d="M715.69,1566.18H161a60.12,60.12,0,0,0-60.12,60.12v53.42A60.12,60.12,0,0,0,161,1739.84H715.69a60.12,60.12,0,0,0,60.12-60.12V1626.3A60.12,60.12,0,0,0,715.69,1566.18ZM195.14,1695.39a42.54,42.54,0,1,1,42.55-42.54A42.54,42.54,0,0,1,195.14,1695.39Z" transform="translate(-100.85 -1166.59)"/><text class="cls-2" transform="translate(742.28 479.01)"><tspan class="cls-3">K</tspan><tspan x="194.52" y="0">OJE ARCHIVE</tspan></text></svg>