<svg id="Layer_1" data-name="Layer 1" xmlns="http://www.w3.org/2000/svg" viewBox="0 0 2819.27 571.14"><defs><style>.cls-1{fill:aqua;}</style></defs><title>KKOJE ARCHIVE</title><path class="cls-1" d="M715.69,1168.7H161a60.12,60.12,0,0,0-60.12,60.12v53.42A60.12,60.12,0,0,0,161,1342.36H715.69a60.12,60.12,0,0,0,60.12-60.12v-53.42A60.12,60.12,0,0,0,715.69,1168.7ZM195.14,1297.91a42.54,42.54,0,1,1,42.55-42.54A42.54,42.54,0,0,1,195.14,1297.91Z" transform="translate(-100.85 -1168.7)"/><path class="cls-1" d="M715.69,1367.44H161a60.12,60.12,0,0,0-60.12,60.12V1481A60.12,60.12,0,0,0,161,1541.1H715.69A60.12,60.12,0,0,0,775.81,1481v-53.42A60.12,60.12,0,0,0,715.69,1367.44ZM195.14,1496.65a42.54,42.54,0,1,1,42.55-42.54A42.54,42.54,0,0,1,195.14,1496.65Z" transform="translate(-100.85 -1168.7)"/><path class="cls-1" d="M715.69,1566.18H161a60.12,60.12,0,0,0-60.12,60.12v53.42A60.12,60.12,0,0,0,161,1739.84H715.69a60.12,60.12,0,0,0,60.12-60.12V1626.3A60.12,60.12,0,0,0,715.69,1566.18ZM195.14,1695.39a42.54,42.54,0,1,1,42.55-42.54A42.54,42.54,0,0,1,195.14,1695.39Z" transform="translate(-100.85 -1168.7)"/><path class="cls-1" d="M957,1645.6,933.93,1478h-.55V1645.6h-79V1251.06h79v167.83h.55L957,1251.06h78.69l-22,138.12c-3.3,30.26-21.74,55.3-48.7,58.87v.83c27,3.3,45.4,28.34,48.7,58.6l22,138.12Z" transform="translate(-100.85 -1168.7)"/><path class="cls-1" d="M1102.59,1645.6c-30.54,0-55.3-26.41-55.3-59.16V1310.21c0-32.74,24.76-59.15,55.3-59.15h63c30.54,0,55.31,26.41,55.31,59.15v276.23c0,32.75-24.77,59.16-55.31,59.16Zm39.34-67.13V1318.19a7.84,7.84,0,1,0-15.68,0v260.28a7.84,7.84,0,1,0,15.68,0Z" transform="translate(-100.85 -1168.7)"/><path class="cls-1" d="M1294.08,1645.6c-30.54,0-55.3-26.41-55.3-59.16v-71c0-32.74,24.76-59.15,55.3-59.15h23.66v122.16a7.85,7.85,0,1,0,15.69,0V1251.06h79v335.38c0,32.75-24.76,59.16-55.3,59.16Z" transform="translate(-100.85 -1168.7)"/><path class="cls-1" d="M1435,1645.6V1251.06h150v59.15h-71v108.68h55V1478h-55v108.4h71v59.16Z" transform="translate(-100.85 -1168.7)"/><path class="cls-1" d="M1794,1645.6V1507.48h-15.68V1645.6h-79V1310.21c0-32.74,24.77-59.15,55.31-59.15h63c30.54,0,55.3,26.41,55.3,59.15V1645.6Zm0-327.41a7.84,7.84,0,1,0-15.68,0v130.14H1794Z" transform="translate(-100.85 -1168.7)"/><path class="cls-1" d="M1990.17,1645.6V1485.75a7.94,7.94,0,0,0-8-7.71h-7.7V1645.6h-79V1251.06h118.31c30.54,0,55.3,26.41,55.3,59.15v79c0,30.81-21.46,55.85-49.25,58.87v.55c27.79,3.31,49.25,28.34,49.25,58.88V1645.6Zm0-234.69v-92.72a8,8,0,0,0-8-8h-7.7v108.68h7.7A8,8,0,0,0,1990.17,1410.91Z" transform="translate(-100.85 -1168.7)"/><path class="cls-1" d="M2143.69,1645.6c-30.54,0-55.3-26.41-55.3-59.16V1310.21c0-32.74,24.76-59.15,55.3-59.15h63c30.54,0,55.3,26.41,55.3,59.15v71c0,33-24.76,59.43-55.3,59.43H2183V1318.19a7.85,7.85,0,1,0-15.69,0v260.28a7.85,7.85,0,1,0,15.69,0V1456.31h79v130.13c0,32.75-24.76,59.16-55.3,59.16Z" transform="translate(-100.85 -1168.7)"/><path class="cls-1" d="M2377.56,1645.6V1478h-15.68V1645.6h-79V1251.06h79v167.83h15.68V1251.06h79V1645.6Z" transform="translate(-100.85 -1168.7)"/><path class="cls-1" d="M2479.08,1645.6V1251.06h79V1645.6Z" transform="translate(-100.85 -1168.7)"/><path class="cls-1" d="M2645.54,1645.6c-23.94,0-40.45-26.41-43.2-59.16l-28.89-335.38h79l11.83,327.41,11.83-327.41h78.68l-28.61,335.38c-3,32.75-19.53,59.16-43.47,59.16Z" transform="translate(-100.85 -1168.7)"/><path class="cls-1" d="M2770.17,1645.6V1251.06h149.95v59.15h-71v108.68h55V1478h-55v108.4h71v59.16Z" transform="translate(-100.85 -1168.7)"/></svg>